<svg width="60" height="60" viewBox="0 0 60 60" fill="none" xmlns="http://www.w3.org/2000/svg">
<path d="M17 49C14.794 49 13 50.794 13 53C13 55.206 14.794 57 17 57C19.206 57 21 55.206 21 53C21 50.794 19.206 49 17 49ZM17 55C15.897 55 15 54.103 15 53C15 51.897 15.897 51 17 51C18.103 51 19 51.897 19 53C19 54.103 18.103 55 17 55Z" fill="white"/>
<path d="M13 5H17C17.552 5 18 4.553 18 4C18 3.447 17.552 3 17 3H13C12.448 3 12 3.447 12 4C12 4.553 12.448 5 13 5Z" fill="white"/>
<path d="M20 5H21C21.552 5 22 4.553 22 4C22 3.447 21.552 3 21 3H20C19.448 3 19 3.447 19 4C19 4.553 19.448 5 20 5Z" fill="white"/>
<path d="M54 47C54 46.447 53.552 46 53 46C52.448 46 52 46.447 52 47V48C52 48.553 52.448 49 53 49C53.552 49 54 48.553 54 48V47Z" fill="white"/>
<path d="M54 35C54 34.447 53.552 34 53 34C52.448 34 52 34.447 52 35V36C52 36.553 52.448 37 53 37C53.552 37 54 36.553 54 36V35Z" fill="white"/>
<path d="M54 43C54 42.447 53.552 42 53 42C52.448 42 52 42.447 52 43V44C52 44.553 52.448 45 53 45C53.552 45 54 44.553 54 44V43Z" fill="white"/>
<path d="M54 39C54 38.447 53.552 38 53 38C52.448 38 52 38.447 52 39V40C52 40.553 52.448 41 53 41C53.552 41 54 40.553 54 40V39Z" fill="white"/>
<path d="M54 31C54 30.447 53.552 30 53 30C52.448 30 52 30.447 52 31V32C52 32.553 52.448 33 53 33C53.552 33 54 32.553 54 32V31Z" fill="white"/>
<path d="M54 51C54 50.447 53.552 50 53 50C52.448 50 52 50.447 52 51V52C52 52.553 52.448 53 53 53C53.552 53 54 52.553 54 52V51Z" fill="white"/>
<path d="M53 54C52.448 54 52 54.447 52 55V56C52 56.553 52.448 57 53 57C53.552 57 54 56.553 54 56V55C54 54.447 53.552 54 53 54Z" fill="white"/>
<path d="M38.043 58H37.049C36.497 58 36.049 58.447 36.049 59C36.049 59.553 36.497 60 37.049 60H38.043C38.595 60 39.043 59.553 39.043 59C39.043 58.447 38.595 58 38.043 58Z" fill="white"/>
<path d="M34.069 58H33.277C33.279 57.997 33.28 57.994 33.282 57.991C33.406 57.801 33.513 57.601 33.606 57.394C33.629 57.343 33.652 57.293 33.673 57.242C33.692 57.196 33.716 57.153 33.733 57.106C33.747 57.068 33.741 57.03 33.75 56.992C33.901 56.551 34 56.086 34 55.595V54.049V53.137V50.4V49.487V46.75V45.838V43.1V42.187V39.45V38.538V35.8V34.887V32.15V31.238V28.857C34.296 28.683 34.5 28.369 34.5 28.001C34.5 27.635 34.293 27.328 34 27.154V4.405C34 1.977 32.024 0 29.595 0H4.405C1.976 0 0 1.977 0 4.405V55.594C0 58.023 1.976 60 4.405 60H29.594H30.094C30.246 60 30.387 59.96 30.516 59.899C31.101 59.774 31.64 59.53 32.114 59.197C32.21 59.652 32.593 60 33.075 60H34.069C34.621 60 35.069 59.553 35.069 59C35.069 58.447 34.621 58 34.069 58ZM2 8H32V27V28.5V31.237V32.149V34.886V35.8V38.537V39.449V42.186V43.1V45.837V46H2V8ZM4.405 2H29.594C30.921 2 32 3.079 32 4.405V6H2V4.405C2 3.079 3.079 2 4.405 2ZM29.595 58H4.405C3.079 58 2 56.921 2 55.595V48H32V49.486V50.399V53.136V54.048V55.594C32 55.903 31.936 56.197 31.83 56.468C31.762 56.641 31.677 56.806 31.571 56.959C31.137 57.587 30.414 58 29.595 58Z" fill="white"/>
<path d="M42.018 58H41.024C40.472 58 40.024 58.447 40.024 59C40.024 59.553 40.472 60 41.024 60H42.018C42.57 60 43.018 59.553 43.018 59C43.018 58.447 42.57 58 42.018 58Z" fill="white"/>
<path d="M45.443 29C45.995 29 46.443 28.553 46.443 28C46.443 27.447 45.995 27 45.443 27H44.449C43.897 27 43.449 27.447 43.449 28C43.449 28.553 43.897 29 44.449 29H45.443Z" fill="white"/>
<path d="M37.494 29C38.046 29 38.494 28.553 38.494 28C38.494 27.447 38.046 27 37.494 27H36.5C35.948 27 35.5 27.447 35.5 28C35.5 28.553 35.948 29 36.5 29H37.494Z" fill="white"/>
<path d="M45.992 58H44.998C44.446 58 43.998 58.447 43.998 59C43.998 59.553 44.446 60 44.998 60H45.992C46.544 60 46.992 59.553 46.992 59C46.992 58.447 46.544 58 45.992 58Z" fill="white"/>
<path d="M41.468 29C42.02 29 42.468 28.553 42.468 28C42.468 27.447 42.02 27 41.468 27H40.474C39.922 27 39.474 27.447 39.474 28C39.474 28.553 39.922 29 40.474 29H41.468Z" fill="white"/>
<path d="M53.94 58H52.946C52.394 58 51.946 58.447 51.946 59C51.946 59.553 52.394 60 52.946 60H53.94C54.492 60 54.94 59.553 54.94 59C54.94 58.447 54.493 58 53.94 58Z" fill="white"/>
<path d="M59 41.729C58.448 41.729 58 42.176 58 42.729V43.723C58 44.276 58.448 44.723 59 44.723C59.552 44.723 60 44.276 60 43.723V42.729C60 42.176 59.552 41.729 59 41.729Z" fill="white"/>
<path d="M59 49.678C58.448 49.678 58 50.125 58 50.678V51.671C58 52.224 58.448 52.671 59 52.671C59.552 52.671 60 52.224 60 51.671V50.678C60 50.125 59.552 49.678 59 49.678Z" fill="white"/>
<path d="M59 45.7029C58.448 45.7029 58 46.1499 58 46.7029V47.6959C58 48.2489 58.448 48.6959 59 48.6959C59.552 48.6959 60 48.2489 60 47.6959V46.7029C60 46.1499 59.552 45.7029 59 45.7029Z" fill="white"/>
<path d="M59 37.7539C58.448 37.7539 58 38.2009 58 38.7539V39.7479C58 40.3009 58.448 40.7479 59 40.7479C59.552 40.7479 60 40.3009 60 39.7479V38.7539C60 38.2009 59.552 37.7539 59 37.7539Z" fill="white"/>
<path d="M59.933 30.6361C59.837 30.0921 59.322 29.7231 58.774 29.8251C58.231 29.9211 57.867 30.4391 57.963 30.9831C57.987 31.1201 58 31.2621 58 31.4051V31.8001C58 32.3531 58.448 32.8001 59 32.8001C59.552 32.8001 60 32.3531 60 31.8001V31.4051C60 31.1471 59.977 30.8891 59.933 30.6361Z" fill="white"/>
<path d="M49.417 29C49.969 29 50.417 28.553 50.417 28C50.417 27.447 49.969 27 49.417 27H48.423C47.871 27 47.423 27.447 47.423 28C47.423 28.553 47.871 29 48.423 29H49.417Z" fill="white"/>
<path d="M59 33.78C58.448 33.78 58 34.227 58 34.78V35.773C58 36.326 58.448 36.773 59 36.773C59.552 36.773 60 36.326 60 35.773V34.78C60 34.228 59.552 33.78 59 33.78Z" fill="white"/>
<path d="M53.391 29C53.943 29 54.391 28.553 54.391 28C54.391 27.447 53.943 27 53.391 27H52.397C51.845 27 51.397 27.447 51.397 28C51.397 28.553 51.845 29 52.397 29H53.391Z" fill="white"/>
<path d="M49.966 58H48.972C48.42 58 47.972 58.447 47.972 59C47.972 59.553 48.42 60 48.972 60H49.966C50.518 60 50.966 59.553 50.966 59C50.966 58.447 50.519 58 49.966 58Z" fill="white"/>
<path d="M56.788 29.317C56.945 29.407 57.117 29.45 57.286 29.45C57.632 29.45 57.969 29.27 58.154 28.948C58.429 28.469 58.264 27.858 57.785 27.583C57.411 27.368 57.009 27.211 56.589 27.114C56.053 26.991 55.515 27.327 55.391 27.865C55.267 28.403 55.603 28.94 56.142 29.063C56.368 29.115 56.585 29.201 56.788 29.317Z" fill="white"/>
<path d="M59 53.6509C58.448 53.6509 58 54.0979 58 54.6509V55.6439C58 56.1969 58.448 56.6199 59 56.6199C59.552 56.6199 60 56.1469 60 55.5949V54.6519C60 54.0989 59.552 53.6509 59 53.6509Z" fill="white"/>
<path d="M57.108 57.464C56.926 57.612 56.724 57.733 56.508 57.821C55.997 58.031 55.753 58.615 55.963 59.126C56.122 59.513 56.495 59.746 56.888 59.746C57.014 59.746 57.143 59.722 57.267 59.671C57.664 59.508 58.035 59.287 58.369 59.017C58.798 58.668 58.863 58.038 58.514 57.61C58.167 57.181 57.537 57.116 57.108 57.464Z" fill="white"/>
<path d="M51.618 20.923C51.74 20.974 51.87 21 52 21C52.13 21 52.26 20.974 52.382 20.923C52.505 20.872 52.615 20.799 52.708 20.707L58.707 14.707C59.098 14.316 59.098 13.684 58.707 13.293C58.316 12.902 57.684 12.902 57.293 13.293L53 17.586V15C53 7.832 47.168 2 40 2C39.448 2 39 2.447 39 3C39 3.553 39.448 4 40 4C46.065 4 51 8.935 51 15V17.586L46.707 13.293C46.316 12.902 45.684 12.902 45.293 13.293C44.902 13.684 44.902 14.316 45.293 14.707L51.292 20.707C51.385 20.799 51.495 20.872 51.618 20.923Z" fill="white"/>
</svg>
