<svg width="59" height="59" viewBox="0 0 59 59" fill="none" xmlns="http://www.w3.org/2000/svg">
<path d="M29.5263 24.4493C32.3432 24.439 34.5867 22.1762 34.5764 19.3532C34.5662 16.5291 32.3178 14.282 29.4997 14.2795C26.658 14.2765 24.3886 16.5653 24.4103 19.4148C24.4314 22.2275 26.7003 24.4595 29.5263 24.4493Z" fill="#FF9800"/>
<path d="M29.5 0C13.2075 0 0 13.2082 0 29.5C0 45.7918 13.2075 59 29.5 59C45.7924 59 59 45.7918 59 29.5C59 13.2082 45.7924 0 29.5 0ZM29.5422 8.97102C35.2883 8.98671 39.9003 13.6868 39.8707 19.4963C39.8417 25.1717 35.1543 29.7716 29.4179 29.7523C23.74 29.733 19.0834 25.0257 19.1172 19.3387C19.1492 13.5896 23.8082 8.95532 29.5422 8.97102ZM41.1805 33.8349C39.91 35.1393 38.3805 36.0833 36.682 36.7418C35.0765 37.3641 33.317 37.6773 31.5751 37.8861C31.8389 38.1722 31.9626 38.3129 32.1268 38.4771C34.4904 40.8533 36.8655 43.2176 39.2213 45.6005C40.024 46.4129 40.1912 47.4197 39.7494 48.3631C39.2671 49.3952 38.1849 50.0736 37.1232 50.0006C36.4508 49.9541 35.9263 49.6204 35.461 49.1514C33.6768 47.3563 31.8588 45.5933 30.112 43.7644C29.602 43.2321 29.3582 43.3335 28.9085 43.7958C27.114 45.644 25.29 47.4626 23.4557 49.2715C22.6319 50.0839 21.6516 50.2312 20.6956 49.7664C19.6797 49.2751 19.0339 48.2376 19.0834 47.194C19.1184 46.4902 19.4649 45.9506 19.9489 45.4689C22.289 43.1337 24.6219 40.7912 26.9553 38.4505C27.1104 38.2954 27.2541 38.1306 27.4792 37.8892C24.2965 37.5566 21.4265 36.7731 18.9693 34.8519C18.6639 34.6129 18.3495 34.3824 18.0718 34.1144C16.9956 33.0816 16.8876 31.898 17.738 30.68C18.4665 29.637 19.6882 29.3582 20.9587 29.9575C21.205 30.0728 21.4392 30.2189 21.6637 30.3734C26.2425 33.5198 32.533 33.6062 37.1299 30.514C37.585 30.1664 38.072 29.8803 38.6364 29.736C39.7325 29.4535 40.7562 29.8573 41.3441 30.817C42.0171 31.9137 42.0092 32.9833 41.1805 33.8349Z" fill="#FF9800"/>
</svg>
